<svg xmlns="http://www.w3.org/2000/svg" xmlns:xlink="http://www.w3.org/1999/xlink" width="139" zoomAndPan="magnify" viewBox="0 0 104.25 44.999999" height="60" preserveAspectRatio="xMidYMid meet" version="1.0"><defs><g/><clipPath id="id1"><path d="M 17.5 2.296875 L 47.285156 2.296875 L 47.285156 41 L 17.5 41 Z M 17.5 2.296875 " clip-rule="nonzero"/></clipPath></defs><g clip-path="url(#id1)"><path fill="#ff7d45" d="M 35.820312 38.691406 C 31.441406 37.042969 41.3125 14.144531 44.523438 6.570312 C 44.839844 5.816406 45.167969 4.992188 44.972656 4.195312 C 44.625 2.761719 42.683594 2.316406 41.679688 3.324219 C 37.921875 7.105469 34.183594 10.90625 30.417969 14.683594 C 30.4375 14.664062 30.007812 6.433594 29.816406 4.707031 C 29.589844 2.683594 28.078125 3.582031 27.296875 4.71875 C 23.804688 9.804688 17.503906 20.507812 17.503906 20.507812 C 17.503906 20.507812 27.132812 9.359375 27.144531 9.066406 C 27.035156 12.28125 26.453125 15.835938 26.816406 19.027344 C 27.089844 21.457031 28.835938 21.210938 30.617188 19.753906 C 32.894531 17.886719 37.542969 13.136719 37.542969 13.136719 C 36.429688 16.4375 26.578125 37.34375 34.089844 40.613281 C 38.414062 42.496094 44.664062 36.652344 47.289062 33.539062 C 44.621094 35.488281 38.765625 39.800781 35.820312 38.691406 " fill-opacity="1" fill-rule="nonzero"/></g><g fill="#5271ff" fill-opacity="1"><g transform="translate(41.977298, 27.340177)"><g><path d="M 10.71875 -0.546875 L 10.71875 0 L 5.96875 0 L 5.96875 -0.546875 L 6.734375 -0.5625 L 6.015625 -3.15625 L 3.328125 -3.15625 L 2.796875 -0.5625 L 3.609375 -0.546875 L 3.609375 0 L 0.03125 0 L 0.03125 -0.546875 L 0.8125 -0.5625 L 4.34375 -10.46875 L 6.3125 -10.734375 L 9.953125 -0.5625 Z M 5.828125 -3.75 L 4.4375 -8.703125 L 3.453125 -3.75 Z M 5.828125 -3.75 "/></g></g></g><g fill="#5271ff" fill-opacity="1"><g transform="translate(52.571301, 27.340177)"><g><path d="M 10.90625 -0.546875 L 10.90625 0 L 7.09375 0 L 4.953125 -4.234375 L 5 -4.265625 C 4.757812 -4.242188 4.414062 -4.222656 3.96875 -4.203125 L 3.96875 -0.5625 L 4.75 -0.546875 L 4.75 0 L 0.5625 0 L 0.5625 -0.546875 L 1.34375 -0.5625 L 1.34375 -10.03125 L 0.5625 -10.046875 L 0.5625 -10.59375 L 3.625 -10.5625 L 5.984375 -10.75 C 6.734375 -10.75 7.378906 -10.609375 7.921875 -10.328125 C 8.472656 -10.054688 8.882812 -9.679688 9.15625 -9.203125 C 9.4375 -8.734375 9.578125 -8.21875 9.578125 -7.65625 C 9.578125 -7 9.382812 -6.425781 9 -5.9375 C 8.625 -5.457031 8.0625 -5.070312 7.3125 -4.78125 L 10.140625 -0.5625 Z M 3.96875 -4.828125 C 4.84375 -4.878906 5.523438 -5.117188 6.015625 -5.546875 C 6.515625 -5.972656 6.765625 -6.550781 6.765625 -7.28125 C 6.765625 -7.789062 6.644531 -8.253906 6.40625 -8.671875 C 6.164062 -9.097656 5.832031 -9.429688 5.40625 -9.671875 C 4.988281 -9.921875 4.507812 -10.046875 3.96875 -10.046875 Z M 3.96875 -4.828125 "/></g></g></g><g fill="#5271ff" fill-opacity="1"><g transform="translate(63.513174, 27.340177)"><g><path d="M 3.96875 -0.5625 L 4.75 -0.546875 L 4.75 0 L 0.5625 0 L 0.5625 -0.546875 L 1.34375 -0.5625 L 1.34375 -10.03125 L 0.5625 -10.046875 L 0.5625 -10.59375 L 4.75 -10.59375 L 4.75 -10.046875 L 3.96875 -10.03125 Z M 11.03125 -0.546875 L 11.03125 0 L 6.125 0 L 6.125 -0.546875 L 6.890625 -0.5625 L 4.203125 -5.203125 L 7.640625 -10.03125 L 6.859375 -10.046875 L 6.859375 -10.59375 L 10.625 -10.59375 L 10.625 -10.046875 L 9.765625 -10.03125 L 6.265625 -6.625 L 10.265625 -0.5625 Z M 11.03125 -0.546875 "/></g></g></g></svg>